<svg xmlns="http://www.w3.org/2000/svg" xml:space="preserve" id="Camada_1" x="0" y="0" style="enable-background:new 0 0 900 596" version="1.1" viewBox="0 0 900 596"><style>.st2{fill:#315b16}</style><path d="M0 0h900v596H0z" style="fill:#e8e6e6"/><path d="M374 120.9h3.3l4.4 73 19.9-22.8-19.1 33.1v24.7l17.2-41.9-6.2 23.9 29.5-23.3-39 46.9-.4 20.2 14.9-23.3 11.6-24.1-8.5 25.2 24.1-16.6v3.3l-42.1 46.2.8 13.9 17.2-19.1 15.6-28 2 1.5-3.1 5.8 14.7-11.4 14.4-6.6-30.9 27.6-8.1 11.8 9.1-3.3 22.8-21v3.3L423 257.3l22.2-4.5 18.6-12.9v4.8l-10.5 7.3 24.6.8-2 2.1-53.6 11.2v2.5l35.3 5.6 14.1 1-1.2 4.1h-15.2l-34.6-6.2-14.1.4-22.6 26.4 4.5 49.1 4.2 7.7 16.2 6.6 23.4 4.8 14.9 2.9 5-1.8 16.4-.3 19.3 5.2 16-2.4-7.3 4.1-54.3 30.9-66 12.2-63.3-11.2-64.3-37.9 15.2 3.5 24.9-2.9 16.3-3.9 11.7 2.7 7.8-1.1 19.9-4.1 11.9-7.3 9.9-58.9-9.9-15.8-6.5-6.8-10.9-2.5-14-2.5-38.1 4.4-24.5 1.4-9.9-1.4.8-3.1 32.5-1.3 27.6-2.7 16.6-2.1 15.6-.8-11.2-5.8-20.6-4.1-12.6-4.2H330l-5.8-9.8 2.3-1.8 18 16.8-6.6-18.3-8.3-17.4h4.2l14.9 30.5 5 11.2 12.6 14.3 2.7-16.2-13-19.1-17.7-18.8-9.9-6-8.9-6.9 1.6-5.2 36.9 31.6-3.1-12.3-7.4-8.1 2.4-4.5 8.8 9.5 8.7 23.4 3.5-12.6-5.8-7.7-8.7-14.9-7.7-8.9-6.2-8.1 13.5 8.9-2.7-11-1.5-5.2 3.5 3.1 5 17.2 9.4 14.4 1.2-15.8-18.3-28.4-.4-3.6 18.3 19.8z" style="fill:#261400"/><path d="m308.3 290.9 26.3-16.7h-26.3l-23.3 19zM258.1 295.5l19.5-3.3 17-16h-16.4l-20.1 16zM233.6 293.7l11.8-11.7 24.3-4.3-14.4 13zM248.7 276.8l-16.6 9.6-21.6-2.5 16.4-9.5h21.8zM243.5 268.6l-22-11.2h-20.9l19.3 13.2zM320.5 264l-24.9 2.9-11.8-2.9-26.4-9.8 36.7-2.3zM281.9 248.2 253.3 224l38.1 22.4 14.4 1.8-26.2-25.7-36.1-6.2 17.4 20.1-27.3-2.5 18.6 14.3zM248.1 248.2l-24.3-18-23.2 2.2 23.8 15.8z" class="st2"/><path d="m252.9 232.4-16.6-17s-31.1-4.4-30.9-3.9c.2.4 19.9 17.6 19.9 17.6l27.6 3.3zM324.8 249.9l-9.9-9.1-27.2-10.4 16 14.1 7.2 5.2zM320.1 226.9l-25.7-15.6-27.8-12.7 12.6 16.8 11 12.5 18.3 2.3-6.9-7.1zM277.5 218.4l-14.9-19.8-57.2-1.6 21.7 12.4 21 3.3 4.8-2.4 24 8.7zM249.1 193.7l-24.7-15.8-20.5 2.7 21.8 13.1 22.4.6zM269.9 197c-1.2-2.3-18.3-24.7-18.9-24.9-.6-.2-11.4-5.8-11.4-5.8l-26.5-2.5 11.2 12.7s22 15.1 23 15.1c1 .2 22.6 5.4 22.6 5.4zM296.4 207.4s-5-18.9-5.6-19.3-34.9-13.5-34.9-13.5l20.3 23.6 20.2 9.2zM320.5 222.1c.6-1-3.9-18.9-4.1-19.3s-21.6-13.1-21.6-13.1l6.6 20.1 19.1 12.3z" class="st2"/><path d="m321.3 232.4 2.7 4.1c.2.8-2.3 2.1-2.9 1.5l-8.1-6-6-6.8 11.8 4.1 2.5 3.1zM342.3 215l-6.5-24-21.1-14.6 5.4 22.9zM315.5 197l-4.5-22.4-20-13.9 5.4 25.9zM323.2 248.2l-8.1-8.1-13.5-5.2 15 3 8.5 8.4-.1 3.4zM332.1 182.5l-2.9-23.3-21.6-13.5 9 27.4zM310.7 168.4l-6.6-25.2-20.1-13.4 5.6 25.5zM290 181.8c-.2-.4-3.5-25.7-3.5-25.7l-24.7-16.6-3.7-1.2 5.4 18.5s9.1 11 9.5 11.6c.4.6 17 13.4 17 13.4zM277.1 177.9c0-1.2-15.8-19.5-15.8-19.5l-15.4-4.1-21.4.8 25.3 13.9 27.3 8.9zM257.6 151.5c-.2-.4-7.7-14.5-7.7-14.5l-5.2-4.6-16.4-6 4.4 12.5 4.4 7.5 7.3 4.2 13.2.9zM284.6 149.1l-2.3-21.2-11.6-8.9-23.9-9.1 5.6 15.3 13.3 13.1zM304.9 136.2l-10.8-23.4-7.9-8.9-14.7-6.8-8.7-1.5s7 16.6 8.9 18.7c1.9 2.1 8.1 10 9.8 10.8 1.7.8 13.5 8.5 14.9 9.1 1.3.6 8.5 2 8.5 2zM330.7 154.3l-5.9-21.6-24.8-16.8 9.3 20.3 3.1 6.4zM345 163c.4-.8-2.7-10.4-2.7-10.4l-.8-8.1-13.7-10 5 16.4 1.9 5.8L345 163zM349.7 144.3l-4.7-13.5-9.6-13.3.9 17.5zM333.4 132.9c0-.8-1.9-17-1.9-17s-17.6-14.3-18.1-14.3c-.6-.2 4.1 20.3 4.1 20.3l15.3 11h.6zM369.6 174.2l-13.4-18.3-10.8-11 7.9 24.5 7.9 8.3zM348.5 127.1c.4-1 3.3-13.7 3.3-13.7l-17.4-18s2.9 15.6 3.3 15.8c.4.3 10.8 15.9 10.8 15.9zM368.2 166.1s.6-36.1.6-36.7c0-.4-13.1-13.5-13.1-13.5l-2.5 21 1.4 9.8 13.6 19.4zM369.6 122.9s2.3-13.7 1.9-13.9c-.4-.2-12.5-11.8-12.5-11.8s-3.3 15.3-2.7 15.8c.3.6 13.3 9.9 13.3 9.9zM313.9 119.6s-5.2-20.9-5.2-21.2c0-.4-7.1-11-7.1-11l-15.4-9.5 1.9 15.4s4.2 11.4 4.6 11.8c.4.4 14.3 12.2 14.3 12.2l6.9 2.3zM333.1 111.3l-3.9-23.2-6.8-12.1L310 64.2l-.6 19.9s2.9 11.4 3.3 11.6c.5.1 20.4 15.6 20.4 15.6zM352.9 109s1.9-18.9 1.9-19.3c0-.4-6.8-13.1-6.8-13.1l-5.8-11s-9.5-9.8-9.5-9.5c0 .4-1.5 19.7-1.5 20.7s5 14.5 5.6 15.4c1.1 1.1 16.1 16.8 16.1 16.8zM371.5 103.2c-.2-.4-2.7-26.1-2.7-26.5 0-.4-6-14.5-6-14.5l-4.4-9.5-6.6 15.1-.6 10.8s2.9 8.1 3.7 8.9c.8 1 16.4 17.6 16.4 17.6l.2-1.9zM376.9 77.9l6.4-10.6-1.8-11.4-3.8-9.1-8.9 13.1v12.2zM377.7 119.6c.2.2 13.7-18.3 13.7-18.7 0-.4-5.6-19.9-5.6-20.3 0-.4-1.9-11.4-1.9-11.4l-6 11s-3.3 11.8-3.3 12.2c-.2.4 3.1 27.2 3.1 27.2zM391.4 95.7l-5.6-20.1 2.7-11 10.6-12s3.9 14.7 3.9 15.3-1.2 10.2-1.2 10.2l-10.4 17.6zM424 75.4c0-.8-2.3-21.4-2.3-21.4l-11.4 13.3-4.6 9.8 6.8 18.5 6.6-7.7 4.9-12.5zM397.4 122.9c0-.8 13.9-21.4 13.9-21.4l-5.8-21-10.2 18.3 2.1 24.1zM417.4 104l1.6-14.3 6.9-13.7 15.7-13-1.6 19.5-3.1 8.7-12.1 9.1-7.4 4.2zM416.9 120.9c.2-.4 12.7-23 12.7-23l-12.7 8.3v14.7zM383.8 151.1s8.3-11.4 8.3-12c0-.6-.8-31.9-.8-31.9l-9.8 13.9 1.4 31.5.9-1.5zM392.3 156.3c.2-.6 0-11.4 0-11.4l-7.9 11.4v10.4l7.9-10.4zM398.7 150.3l9.1-8.3 6.2-12.2-1.4-24.3-14.7 22.4zM412.4 138.3l6.6-13.7 7.9-9.8 12.3-4.7-9.6 22.2zM406.8 169.6c.2-.4 4.1-12.2 4.4-13.1.6-1 2.1-12.2 2.1-12.2L435 135l-11 22.2-1.4 4.8-15.8 7.6zM438.7 132.9l21.4-8.7-7.3 20.1-20.9 8.1zM433.8 108.4c0-.8 4.4-18.5 5.4-19.1.8-.6 9.8-8.9 9.8-8.9l18.5-6.6-9.5 21.6-7.5 6.2-16.7 6.8zM435.6 127.9l9.2-19.5 11.4-8.1 13.6-6.6-11.2 25.9-23 10.2zM465.3 118.6c.8-1.7 7-16.8 7-16.8l13.1-7.9 6.6-1.2-6.4 17-6.2 4.1-14.1 4.8zM475.5 135c.6 0 9.8-19.1 9.8-19.1l21.6-8.7-8.7 19.1-5.6 4.6-17.1 4.1zM469.8 137.7c.8-.8 11.8-19.1 11.8-19.1s1.2-2.3 0-1.9-18 7.5-18 7.5l-6.8 22 13-8.5zM428.6 160.7c1 .4 12.9-4.8 12.9-4.8l8.7-3.5s1.5-3.1 1-3.1-12 3.9-12 3.9l-7.3 4.2-3.3 3.3zM443.7 174.8l9.1-19.9 17-9.8 27.2-13.7-12.2 19.9-10.4 12.7-17.6 8.3zM493.7 143.2c.2-.6 10.6-13.3 10.6-13.3l22.2-1-11.8 13.1-21 1.2zM480.4 162.7l10.8-15.9 28.6-3.1-8.5 7.4-10.3 6.7zM420.9 184.3s16-7.1 16.4-7.9 10.6-19.1 10.6-19.1l-22 8.3-5 18.7z" class="st2"/><path d="M383.6 183.7c-.2-1 0-15.1 0-15.1l23.4-26.3-7 22.2-7.3 13.7-9.1 5.5zM398.1 203.6s-.8-3.1-.8-3.7 4.6-17.8 4.6-17.8l19.1-8.5-6.2 18.5-16.7 11.5zM418.4 202.4l9.3-15.8 30.5-11.8-14.5 20.9zM423.2 228.1c0-.6 14.7-27.4 14.7-27.4l27.8-9.7-15.3 20.1-8.7 7.7-18.5 9.3zM448.5 194.7l24-7.3 18.1-22.6-25.1 6zM476.1 188.1c.4-.6 12-14.9 12-14.9l24.7-1.4-17.6 15.3-19.1 1zM489.8 169.6c2.7 0 27-1.4 27-1.4l12.2-6.8 9.1-12.9-22.6 2.3-16.6 8.1-9.1 10.7zM497 188.5l19.1-18 5.6-1.9 8.9-.8 19.5 3.9-16 12.7-14.5 5.8s-13.7 2.7-15.1 2.1c-1.4-.8-7.7-3.1-7.7-3.1l.2-.7zM454.1 217.1c0-.6 15.4-15.4 15.4-15.4l16-4.4 14.5-1.5 11.4-1.7.8.8-10.4 10.8-12.9 9.8-34.8 1.6zM471.1 198.2s5-8.1 5.8-8.1 16.8-.8 16.8-.8l6.8 4.4-29.4 4.5zM497 212.5l20.4-17.8 27.5.8-16.8 10-11 6zM500.6 230c.8 0 16.8-17.6 16.8-17.6l12-7H541l15.3 3.7L541 220l-10 4.4-11.4 3.7-19 1.9zM474 233.1l14.9-13.7 21.2-3.7-11.2 14.3-24.9 3.7zM438.9 238.3c0-.8 11.4-13.7 11.4-13.7l7.5-3.7 27.4-3.3-14.7 13.4-4.6 2.5-27 4.8zM459.3 250.5h22.4l13.2-14.5-24.8 2.3-10.8 11.6zM492.2 250.5l15.1-15.8 17-6.6 15.8-3.3 20.3 5.4s-15.3 10.4-16.6 11c-1.4.6-10.2 6-10.2 6l-41.4 3.3zM487.9 257.1l29.2 10 16.2 1 26-11-18.3-6.6h-29zM507.8 297.4l-18.9-17.9-13.9 1.3 8.1 7.3 8.3 6.2zM484 293s-10.8-10.2-11.2-10.2-15.3 1-15.3 1l8.9 5.4 18.9 6.2-1.3-2.4zM514 269.8l-30.2-10.4-40.3 5.2 32.4 11.6zM512 277.3l35.4 10.5-19 4.6-18.3-1.9-17.9-10.5 21.8-6.7 16.4-2.9 22 4.8v1.7l-14.5 5.8zM274.4 268.3 250 250.5l-22.9 1.9 23.7 15.9zM406.2 225.2l17.4-8.7 3.9-16.2-18 11.4-3.7 12.9zM430 251.5l11-10.3 16-2.7-8.3 10.6L430 252zM349.9 194.1l-.8-19.3-17.8-18.9 3.9 18.9 1.3 6zM335 245.1l-1.7-13.1-11.2-10.8 3.4 12.3 1.4 3.9z" class="st2"/><circle cx="379.2" cy="226.6" r="190.2" style="fill:none;stroke:#261400;stroke-width:6;stroke-miterlimit:10"/><g style="enable-background:new"><path d="M111.4 527.5v34.9H98.9v-83.9c0-8.6 4.8-15.6 10.7-15.6H149.9c5.9 0 10.7 7 10.7 15.6v83.9h-12.4v-34.9h-36.8zm0-46.4v28.3h36.7v-28.3h-36.7zM207.1 521.9v40.7h-12.5V463h12.5v58.9zM269.3 504.5v16.4h-28.2v-16.4h28.2zM311 544.2h34.9v-22.5h-38.6c-4.2 0-8-3.8-9.7-9.1-.7-1.8-1-4.1-1-6.5v-27.6c0-8.6 4.8-15.6 10.7-15.6h40.5c5.9 0 10.7 7 10.7 15.6v11.9H346v-9.3h-36.7v22.5h38.6c4.2 0 8.1 3.8 9.7 9.1.7 2 1 4.1 1 6.5V547c0 8.6-4.8 15.6-10.6 15.6h-40.6c-5.8-.2-10.6-7.1-10.6-15.6v-11.9h12.5v9.3h1.7v-.2zM430.1 562.6h-58.4V463H430.1v18.2h-46v22.5H424v18.2h-39.9v22.5h46v18.2zM443.5 521.9V463H501.9v18.2H456v22.5h39.9v18.2H456v40.7h-12.5v-40.7zM567 562.6h-58.4V463H567v18.2h-46v22.5h40v18.2h-39.9v22.5H567v18.2zM621.4 562.6 605 527.3h-17.6v35.3H575v-99.7h50.9c5.9 0 10.7 7 10.7 15.6v33.1c0 8.6-4.8 15.6-10.7 15.6h-5.8l3.9 8.6 12.5 26.6h-15.1v.2zm-34.1-53.7H624v-27.8h-36.7v27.8z" class="st2"/></g></svg>