<svg xmlns="http://www.w3.org/2000/svg" xml:space="preserve" id="Icons" width="800" height="800" fill="#000" version="1.1" viewBox="0 0 32 32"><g id="SVGRepo_tracerCarrier" stroke="#000" stroke-linecap="round" stroke-linejoin="round" stroke-width="6.4"><style>@keyframes flfjZVLY_draw{to{stroke-dashoffset:0}}@keyframes flfjZVLY_fade{0%,94.44444444444444%{stroke-opacity:1}to{stroke-opacity:0}}@keyframes flfjZVLY_draw_0{11.11111111111111%{stroke-dashoffset:68}38.88888888888889%,to{stroke-dashoffset:0}}@keyframes flfjZVLY_draw_1{12.037037037037036%{stroke-dashoffset:5}39.81481481481482%,to{stroke-dashoffset:0}}@keyframes flfjZVLY_draw_2{12.962962962962962%{stroke-dashoffset:5}40.74074074074075%,to{stroke-dashoffset:0}}@keyframes flfjZVLY_draw_3{13.88888888888889%{stroke-dashoffset:1}41.66666666666667%,to{stroke-dashoffset:0}}@keyframes flfjZVLY_draw_4{14.814814814814817%{stroke-dashoffset:1}42.592592592592595%,to{stroke-dashoffset:0}}@keyframes flfjZVLY_draw_5{15.740740740740744%{stroke-dashoffset:1}43.518518518518526%,to{stroke-dashoffset:0}}@keyframes flfjZVLY_draw_6{16.666666666666664%{stroke-dashoffset:1}44.44444444444444%,to{stroke-dashoffset:0}}@keyframes flfjZVLY_draw_7{17.59259259259259%{stroke-dashoffset:22}45.370370370370374%,to{stroke-dashoffset:0}}@keyframes flfjZVLY_draw_8{18.51851851851852%{stroke-dashoffset:68}46.2962962962963%,to{stroke-dashoffset:0}}@keyframes flfjZVLY_draw_9{19.444444444444446%{stroke-dashoffset:5}47.22222222222222%,to{stroke-dashoffset:0}}@keyframes flfjZVLY_draw_10{20.370370370370374%{stroke-dashoffset:5}48.14814814814815%,to{stroke-dashoffset:0}}@keyframes flfjZVLY_draw_11{21.296296296296298%{stroke-dashoffset:1}49.074074074074076%,to{stroke-dashoffset:0}}@keyframes flfjZVLY_draw_12{22.22222222222222%{stroke-dashoffset:1}50%,to{stroke-dashoffset:0}}@keyframes flfjZVLY_draw_13{23.14814814814815%{stroke-dashoffset:1}50.92592592592593%,to{stroke-dashoffset:0}}@keyframes flfjZVLY_draw_14{24.074074074074076%{stroke-dashoffset:1}51.85185185185185%,to{stroke-dashoffset:0}}@keyframes flfjZVLY_draw_15{25%{stroke-dashoffset:22}52.77777777777778%,to{stroke-dashoffset:0}}.st0{fill:none;stroke:#000;stroke-width:2;stroke-linecap:round;stroke-linejoin:round;stroke-miterlimit:10}</style><path d="M23 15c-1.2 0-2.4.4-3.3 1h-7.4c-.9-.6-2.1-1-3.3-1-3.3 0-6 2.7-6 6s2.7 6 6 6c1.2 0 2.4-.4 3.3-1h7.4c.9.6 2.1 1 3.3 1 3.3 0 6-2.7 6-6s-2.7-6-6-6z" class="st0" style="stroke-dasharray:67 69;stroke-dashoffset:68;animation:flfjZVLY_draw_0 7200ms linear 0ms infinite,flfjZVLY_fade 7200ms linear 0ms infinite"/><path d="M9 19v4" class="st0" style="stroke-dasharray:4 6;stroke-dashoffset:5;animation:flfjZVLY_draw_1 7200ms linear 0ms infinite,flfjZVLY_fade 7200ms linear 0ms infinite"/><path d="M7 21h4" class="st0" style="stroke-dasharray:4 6;stroke-dashoffset:5;animation:flfjZVLY_draw_2 7200ms linear 0ms infinite,flfjZVLY_fade 7200ms linear 0ms infinite"/><path d="M23 19h0" class="st0" style="stroke-dasharray:0 2;stroke-dashoffset:1;animation:flfjZVLY_draw_3 7200ms linear 0ms infinite,flfjZVLY_fade 7200ms linear 0ms infinite"/><path d="M21 21h0" class="st0" style="stroke-dasharray:0 2;stroke-dashoffset:1;animation:flfjZVLY_draw_4 7200ms linear 0ms infinite,flfjZVLY_fade 7200ms linear 0ms infinite"/><path d="M25 21h0" class="st0" style="stroke-dasharray:0 2;stroke-dashoffset:1;animation:flfjZVLY_draw_5 7200ms linear 0ms infinite,flfjZVLY_fade 7200ms linear 0ms infinite"/><path d="M23 23h0" class="st0" style="stroke-dasharray:0 2;stroke-dashoffset:1;animation:flfjZVLY_draw_6 7200ms linear 0ms infinite,flfjZVLY_fade 7200ms linear 0ms infinite"/><path d="M16 16v-2c0-2.2-1.8-4-4-4H9c-2.2 0-4-1.8-4-4V3" class="st0" style="stroke-dasharray:21 23;stroke-dashoffset:22;animation:flfjZVLY_draw_7 7200ms linear 0ms infinite,flfjZVLY_fade 7200ms linear 0ms infinite"/></g><g id="SVGRepo_iconCarrier"><path d="M23 15c-1.2 0-2.4.4-3.3 1h-7.4c-.9-.6-2.1-1-3.3-1-3.3 0-6 2.7-6 6s2.7 6 6 6c1.2 0 2.4-.4 3.3-1h7.4c.9.6 2.1 1 3.3 1 3.3 0 6-2.7 6-6s-2.7-6-6-6z" class="st0" style="stroke-dasharray:67 69;stroke-dashoffset:68;animation:flfjZVLY_draw_8 7200ms linear 0ms infinite,flfjZVLY_fade 7200ms linear 0ms infinite"/><path d="M9 19v4" class="st0" style="stroke-dasharray:4 6;stroke-dashoffset:5;animation:flfjZVLY_draw_9 7200ms linear 0ms infinite,flfjZVLY_fade 7200ms linear 0ms infinite"/><path d="M7 21h4" class="st0" style="stroke-dasharray:4 6;stroke-dashoffset:5;animation:flfjZVLY_draw_10 7200ms linear 0ms infinite,flfjZVLY_fade 7200ms linear 0ms infinite"/><path d="M23 19h0" class="st0" style="stroke-dasharray:0 2;stroke-dashoffset:1;animation:flfjZVLY_draw_11 7200ms linear 0ms infinite,flfjZVLY_fade 7200ms linear 0ms infinite"/><path d="M21 21h0" class="st0" style="stroke-dasharray:0 2;stroke-dashoffset:1;animation:flfjZVLY_draw_12 7200ms linear 0ms infinite,flfjZVLY_fade 7200ms linear 0ms infinite"/><path d="M25 21h0" class="st0" style="stroke-dasharray:0 2;stroke-dashoffset:1;animation:flfjZVLY_draw_13 7200ms linear 0ms infinite,flfjZVLY_fade 7200ms linear 0ms infinite"/><path d="M23 23h0" class="st0" style="stroke-dasharray:0 2;stroke-dashoffset:1;animation:flfjZVLY_draw_14 7200ms linear 0ms infinite,flfjZVLY_fade 7200ms linear 0ms infinite"/><path d="M16 16v-2c0-2.2-1.8-4-4-4H9c-2.2 0-4-1.8-4-4V3" class="st0" style="stroke-dasharray:21 23;stroke-dashoffset:22;animation:flfjZVLY_draw_15 7200ms linear 0ms infinite,flfjZVLY_fade 7200ms linear 0ms infinite"/></g></svg>