<svg xmlns="http://www.w3.org/2000/svg" width="800" height="800" fill="none" stroke="#fff" viewBox="0 0 25 25"><g id="SVGRepo_tracerCarrier" stroke="#000" stroke-linecap="round" stroke-linejoin="round" stroke-width="1.5"><path stroke="#121923" stroke-width="1.2" d="m14.262 5.406-.39-.978a1.477 1.477 0 0 0-2.743 0l-.391.978a1.518 1.518 0 0 1-2.008.832l-.968-.415a1.477 1.477 0 0 0-1.94 1.94l.416.967a1.518 1.518 0 0 1-.832 2.008l-.978.39a1.477 1.477 0 0 0 0 2.743l.978.391a1.518 1.518 0 0 1 .832 2.008l-.415.968a1.477 1.477 0 0 0 1.94 1.94l.967-.416a1.518 1.518 0 0 1 2.008.832l.39.977a1.477 1.477 0 0 0 2.743 0l.391-.977a1.518 1.518 0 0 1 2.008-.832l.968.415a1.477 1.477 0 0 0 1.94-1.94l-.416-.967a1.518 1.518 0 0 1 .832-2.008l.977-.39a1.477 1.477 0 0 0 0-2.743l-.977-.391a1.518 1.518 0 0 1-.832-2.008l.415-.968a1.477 1.477 0 0 0-1.94-1.94l-.967.416a1.518 1.518 0 0 1-2.008-.832Z" style="stroke-dasharray:65 67;stroke-dashoffset:66;animation:geZwkQPA_draw_0 7200ms linear 0ms infinite,geZwkQPA_fade 7200ms linear 0ms infinite"/><path stroke="#121923" stroke-width="1.2" d="M16.5 12.5a4 4 0 1 1-8 0 4 4 0 0 1 8 0Z" style="stroke-dasharray:26 28;stroke-dashoffset:27;animation:geZwkQPA_draw_1 7200ms linear 0ms infinite,geZwkQPA_fade 7200ms linear 0ms infinite"/></g><g id="SVGRepo_iconCarrier"><path stroke="#121923" stroke-width="1.2" d="m14.262 5.406-.39-.978a1.477 1.477 0 0 0-2.743 0l-.391.978a1.518 1.518 0 0 1-2.008.832l-.968-.415a1.477 1.477 0 0 0-1.94 1.94l.416.967a1.518 1.518 0 0 1-.832 2.008l-.978.39a1.477 1.477 0 0 0 0 2.743l.978.391a1.518 1.518 0 0 1 .832 2.008l-.415.968a1.477 1.477 0 0 0 1.94 1.94l.967-.416a1.518 1.518 0 0 1 2.008.832l.39.977a1.477 1.477 0 0 0 2.743 0l.391-.977a1.518 1.518 0 0 1 2.008-.832l.968.415a1.477 1.477 0 0 0 1.94-1.94l-.416-.967a1.518 1.518 0 0 1 .832-2.008l.977-.39a1.477 1.477 0 0 0 0-2.743l-.977-.391a1.518 1.518 0 0 1-.832-2.008l.415-.968a1.477 1.477 0 0 0-1.94-1.94l-.967.416a1.518 1.518 0 0 1-2.008-.832Z" style="stroke-dasharray:65 67;stroke-dashoffset:66;animation:geZwkQPA_draw_2 7200ms linear 0ms infinite,geZwkQPA_fade 7200ms linear 0ms infinite"/><path stroke="#121923" stroke-width="1.2" d="M16.5 12.5a4 4 0 1 1-8 0 4 4 0 0 1 8 0Z" style="stroke-dasharray:26 28;stroke-dashoffset:27;animation:geZwkQPA_draw_3 7200ms linear 0ms infinite,geZwkQPA_fade 7200ms linear 0ms infinite"/></g><style data-made-with="vivus-instant">@keyframes geZwkQPA_draw{to{stroke-dashoffset:0}}@keyframes geZwkQPA_fade{0%,94.44444444444444%{stroke-opacity:1}to{stroke-opacity:0}}@keyframes geZwkQPA_draw_0{11.11111111111111%{stroke-dashoffset:66}38.88888888888889%,to{stroke-dashoffset:0}}@keyframes geZwkQPA_draw_1{15.740740740740739%{stroke-dashoffset:27}43.51851851851851%,to{stroke-dashoffset:0}}@keyframes geZwkQPA_draw_2{20.37037037037037%{stroke-dashoffset:66}48.148148148148145%,to{stroke-dashoffset:0}}@keyframes geZwkQPA_draw_3{25%{stroke-dashoffset:27}52.77777777777778%,to{stroke-dashoffset:0}}</style></svg>