<svg xmlns="http://www.w3.org/2000/svg" xml:space="preserve" id="Camada_1" x="0" y="0" style="enable-background:new 0 0 731.7 213" version="1.1" viewBox="0 0 731.7 213"><style>.st1{fill:#315b16}</style><path d="M103.4 50.9h1.7l2.3 37.8 10.3-11.8-9.9 17.1v12.8l8.9-21.7-3.2 12.4 15.3-12.1-20.2 24.3-.2 10.5 7.7-12.1 6-12.5-4.4 13.1 12.5-8.6v1.7l-21.8 23.9.4 7.2 8.9-9.9 8.1-14.5 1 .8-1.6 3 7.6-5.9 7.5-3.4-16 14.3-4.2 6.1 4.7-1.7 11.8-10.9v1.7l-7.8 9 11.5-2.3 9.6-6.7v2.5l-5.4 3.8 12.7.4-1 1.1-27.8 5.8v1.3l18.3 2.9 7.3.5-.6 2.1h-7.9l-17.9-3.2-7.3.2-11.7 13.7 2.3 25.4 2.2 4 8.4 3.4 12.1 2.5 7.7 1.5 2.6-.9 8.5-.2 10 2.7 8.3-1.2-3.8 2.1-28.1 16-34.2 6.3-32.8-5.8-33.3-19.6 7.9 1.8 12.9-1.5 8.4-2 6.1 1.4 4-.6 10.3-2.1 6.2-3.8 5.1-30.5-5.1-8.2-3.4-3.5-5.6-1.3-7.3-1.3-19.7 2.3-12.7.7-5.1-.7.4-1.6 16.8-.7 14.3-1.4 8.6-1.1 8.1-.4-5.8-3-10.7-2.1-6.5-2.2h14.9l-3-5.1 1.2-.9 9.3 8.7-3.4-9.5-4.3-9h2.2l7.7 15.8 2.6 5.8 6.5 7.4 1.4-8.4-6.7-9.9-9.2-9.7-5.1-3.1-4.6-3.6.8-2.7 19.1 16.4-1.6-6.4-3.8-4.2 1.2-2.3 4.6 4.9 4.5 12.1 1.8-6.5-3-4-4.5-7.7-4-4.6-3.2-4.2 7 4.6-1.4-5.7-.8-2.7 1.8 1.6 2.6 8.9 4.9 7.5.6-8.2-9.5-14.7-.2-1.9 9.5 10.3z" style="fill:#261400"/><path d="m69.4 138.9 13.6-8.6H69.4l-12.1 9.8zM43.4 141.3l10.1-1.7 8.8-8.3h-8.5l-10.4 8.3zM30.7 140.4l6.1-6.1 12.6-2.2-7.5 6.7zM38.5 131.6l-8.6 5-11.2-1.3 8.5-4.9h11.3zM35.8 127.4l-11.4-5.8H13.6l10 6.8zM75.7 125l-12.9 1.5-6.1-1.5-13.7-5.1 19-1.2zM55.7 116.8l-14.8-12.5 19.7 11.6 7.5.9-13.6-13.3-18.7-3.2 9 10.4-14.1-1.3 9.6 7.4zM38.2 116.8l-12.6-9.3-12 1.1 12.3 8.2z" class="st1"/><path d="m40.7 108.6-8.6-8.8s-16.1-2.3-16-2c.1.2 10.3 9.1 10.3 9.1l14.3 1.7zM77.9 117.7l-5.1-4.7-14.1-5.4 8.3 7.3 3.7 2.7zM75.5 105.8l-13.3-8.1-14.4-6.6 6.5 8.7 5.7 6.5 9.5 1.2-3.6-3.7zM53.4 101.4l-7.7-10.3-29.6-.8 11.2 6.4 10.9 1.7 2.5-1.2 12.4 4.5zM38.7 88.6l-12.8-8.2-10.6 1.4 11.3 6.8 11.6.3zM49.5 90.3c-.6-1.2-9.5-12.8-9.8-12.9s-5.9-3-5.9-3l-13.7-1.3 5.8 6.6s11.4 7.8 11.9 7.8c.5.1 11.7 2.8 11.7 2.8zM63.2 95.7s-2.6-9.8-2.9-10c-.3-.2-18.1-7-18.1-7l10.5 12.2 10.5 4.8zM75.7 103.3c.3-.5-2-9.8-2.1-10-.1-.2-11.2-6.8-11.2-6.8l3.4 10.4 9.9 6.4z" class="st1"/><path d="m76.1 108.6 1.4 2.1c.1.4-1.2 1.1-1.5.8l-4.2-3.1-3.1-3.5 6.1 2.1 1.3 1.6zM87 99.6l-3.4-12.4-10.9-7.6 2.8 11.9zM73.1 90.3l-2.3-11.6-10.4-7.2 2.8 13.4zM77.1 116.8l-4.2-4.2-7-2.7 7.8 1.6 4.4 4.3-.1 1.8zM81.7 82.8l-1.5-12.1-11.2-7 4.7 14.2zM70.6 75.5l-3.4-13.1-10.4-6.9 2.9 13.2zM59.9 82.4c-.1-.2-1.8-13.3-1.8-13.3l-12.8-8.6-1.9-.6 2.8 9.6s4.7 5.7 4.9 6c.2.3 8.8 6.9 8.8 6.9zM53.2 80.4c0-.6-8.2-10.1-8.2-10.1l-8-2.1-11.1.4L39 75.8l14.2 4.6zM43.1 66.7c-.1-.2-4-7.5-4-7.5l-2.7-2.4-8.5-3.1 2.3 6.5 2.3 3.9 3.8 2.2 6.8.4zM57.1 65.5l-1.2-11-6-4.6-12.4-4.7 2.9 7.9 6.9 6.8zM67.6 58.8 62 46.7l-4.1-4.6-7.6-3.5-4.5-.8s3.6 8.6 4.6 9.7c1 1.1 4.2 5.2 5.1 5.6.9.4 7 4.4 7.7 4.7.7.3 4.4 1 4.4 1zM81 68.2 77.9 57l-12.8-8.7 4.8 10.5 1.6 3.3zM88.4 72.7c.2-.4-1.4-5.4-1.4-5.4l-.4-4.2-7.1-5.2 2.6 8.5 1 3 5.3 3.3zM90.8 63l-2.4-7-5-6.9.5 9.1zM82.4 57.1c0-.4-1-8.8-1-8.8s-9.1-7.4-9.4-7.4c-.3-.1 2.1 10.5 2.1 10.5l7.9 5.7h.4zM101.1 78.5 94.2 69l-5.6-5.7L92.7 76l4.1 4.3zM90.2 54.1c.2-.5 1.7-7.1 1.7-7.1l-9-9.3s1.5 8.1 1.7 8.2c.2.1 5.6 8.2 5.6 8.2zM100.4 74.3s.3-18.7.3-19c0-.2-6.8-7-6.8-7l-1.3 10.9.7 5.1 7.1 10zM101.1 51.9s1.2-7.1 1-7.2c-.2-.1-6.5-6.1-6.5-6.1s-1.7 7.9-1.4 8.2c.2.3 6.9 5.1 6.9 5.1zM72.3 50.2s-2.7-10.8-2.7-11c0-.2-3.7-5.7-3.7-5.7l-8-4.9 1 8s2.2 5.9 2.4 6.1c.2.2 7.4 6.3 7.4 6.3l3.6 1.2zM82.2 45.9l-2-12-3.5-6.3-6.4-6.1-.3 10.3s1.5 5.9 1.7 6c.2.1 10.5 8.1 10.5 8.1zM92.5 44.7s1-9.8 1-10c0-.2-3.5-6.8-3.5-6.8l-3-5.7s-4.9-5.1-4.9-4.9c0 .2-.8 10.2-.8 10.7s2.6 7.5 2.9 8c.5.6 8.3 8.7 8.3 8.7zM102.1 41.7c-.1-.2-1.4-13.5-1.4-13.7 0-.2-3.1-7.5-3.1-7.5l-2.3-4.9-3.4 7.8-.3 5.6s1.5 4.2 1.9 4.6c.4.5 8.5 9.1 8.5 9.1l.1-1zM104.9 28.6l3.3-5.5-.9-5.9-2-4.7-4.6 6.8v6.3zM105.3 50.2c.1.1 7.1-9.5 7.1-9.7 0-.2-2.9-10.3-2.9-10.5 0-.2-1-5.9-1-5.9l-3.1 5.7s-1.7 6.1-1.7 6.3c-.1.2 1.6 14.1 1.6 14.1zM112.4 37.8l-2.9-10.4 1.4-5.7 5.5-6.2s2 7.6 2 7.9-.6 5.3-.6 5.3l-5.4 9.1zM129.3 27.3c0-.4-1.2-11.1-1.2-11.1l-5.9 6.9-2.4 5.1 3.5 9.6 3.4-4 2.6-6.5zM115.5 51.9c0-.4 7.2-11.1 7.2-11.1l-3-10.9-5.3 9.5 1.1 12.5zM125.9 42.1l.8-7.4 3.6-7.1 8.1-6.7-.8 10.1-1.6 4.5-6.3 4.7-3.8 2.2zM125.6 50.9c.1-.2 6.6-11.9 6.6-11.9l-6.6 4.3v7.6zM108.5 66.5s4.3-5.9 4.3-6.2-.4-16.5-.4-16.5l-5.1 7.2.7 16.3.5-.8zM112.9 69.2c.1-.3 0-5.9 0-5.9l-4.1 5.9v5.4l4.1-5.4zM116.2 66.1l4.7-4.3 3.2-6.3-.7-12.6-7.6 11.6zM123.3 59.9l3.4-7.1 4.1-5.1 6.4-2.4-5 11.5zM120.4 76.1c.1-.2 2.1-6.3 2.3-6.8.3-.5 1.1-6.3 1.1-6.3l11.2-4.8-5.7 11.5-.7 2.5-8.2 3.9zM136.9 57.1l11.1-4.5-3.8 10.4-10.8 4.2zM134.4 44.4c0-.4 2.3-9.6 2.8-9.9.4-.3 5.1-4.6 5.1-4.6l9.6-3.4-4.9 11.2-3.9 3.2-8.7 3.5zM135.3 54.5l4.8-10.1 5.9-4.2 7-3.4-5.8 13.4-11.9 5.3zM150.7 49.7c.4-.9 3.6-8.7 3.6-8.7l6.8-4.1 3.4-.6-3.3 8.8-3.2 2.1-7.3 2.5zM156 58.2c.3 0 5.1-9.9 5.1-9.9l11.2-4.5-4.5 9.9-2.9 2.4-8.9 2.1zM153 59.6c.4-.4 6.1-9.9 6.1-9.9s.6-1.2 0-1c-.6.2-9.3 3.9-9.3 3.9L146.3 64l6.7-4.4zM131.7 71.5c.5.2 6.7-2.5 6.7-2.5l4.5-1.8s.8-1.6.5-1.6c-.3 0-6.2 2-6.2 2l-3.8 2.2-1.7 1.7zM139.5 78.8l4.7-10.3 8.8-5.1 14.1-7.1-6.3 10.3-5.4 6.6-9.1 4.3zM165.4 62.4c.1-.3 5.5-6.9 5.5-6.9l11.5-.5-6.1 6.8-10.9.6zM158.5 72.5l5.6-8.2 14.8-1.6-4.4 3.8-5.3 3.5zM127.7 83.7s8.3-3.7 8.5-4.1c.2-.4 5.5-9.9 5.5-9.9L130.3 74l-2.6 9.7z" class="st1"/><path d="M108.4 83.4c-.1-.5 0-7.8 0-7.8L120.5 62l-3.6 11.5-3.8 7.1-4.7 2.8zM115.9 93.7s-.4-1.6-.4-1.9 2.4-9.2 2.4-9.2l9.9-4.4-3.2 9.6-8.7 5.9zM126.4 93.1l4.8-8.2 15.8-6.1-7.5 10.8zM128.9 106.4c0-.3 7.6-14.2 7.6-14.2l14.4-5-7.9 10.4-4.5 4-9.6 4.8zM142 89.1l12.4-3.8 9.4-11.7-13 3.1zM156.3 85.7c.2-.3 6.2-7.7 6.2-7.7l12.8-.7-9.1 7.9-9.9.5zM163.4 76.1c1.4 0 14-.7 14-.7l6.3-3.5 4.7-6.7-11.7 1.2-8.6 4.2-4.7 5.5zM167.1 85.9l9.9-9.3 2.9-1 4.6-.4 10.1 2-8.3 6.6-7.5 3s-7.1 1.4-7.8 1.1c-.7-.4-4-1.6-4-1.6l.1-.4zM144.9 100.7c0-.3 8-8 8-8l8.3-2.3 7.5-.8 5.9-.9.4.4-5.4 5.6-6.7 5.1-18 .9zM153.7 90.9s2.6-4.2 3-4.2c.4 0 8.7-.4 8.7-.4l3.5 2.3-15.2 2.3zM167.1 98.3l10.6-9.2 14.2.4-8.7 5.2-5.7 3.1zM169 107.4c.4 0 8.7-9.1 8.7-9.1l6.2-3.6h6l7.9 1.9-7.9 5.6-5.2 2.3-5.9 1.9-9.8 1zM155.2 109l7.7-7.1 11-1.9-5.8 7.4-12.9 1.9zM137 111.7c0-.4 5.9-7.1 5.9-7.1l3.9-1.9L161 101l-7.6 6.9-2.4 1.3-14 2.5zM147.6 118h11.6l6.8-7.5-12.8 1.2-5.6 6zM164.6 118l7.8-8.2 8.8-3.4 8.2-1.7 10.5 2.8s-7.9 5.4-8.6 5.7-5.3 3.1-5.3 3.1l-21.4 1.7zM162.4 121.4l15.1 5.2 8.4.5 13.5-5.7-9.5-3.4h-15zM172.7 142.3l-9.8-9.3-7.2.7 4.2 3.8 4.3 3.2zM160.4 140s-5.6-5.3-5.8-5.3-7.9.5-7.9.5l4.6 2.8 9.8 3.2-.7-1.2zM175.9 128l-15.6-5.4-20.9 2.7 16.8 6zM174.9 131.9l18.3 5.4-9.8 2.4-9.5-1-9.3-5.4 11.3-3.5 8.5-1.5 11.4 2.5v.9l-7.5 3zM51.8 127.2 39.2 118l-11.9 1 12.3 8.2zM120.1 104.9l9-4.5 2-8.4-9.3 5.9-1.9 6.7zM132.4 118.5l5.7-5.3 8.3-1.4-4.3 5.5-9.7 1.5zM90.9 88.8l-.4-10-9.2-9.8 2 9.8.7 3.1zM83.2 115.2l-.9-6.8-5.8-5.6 1.8 6.4.7 2z" class="st1"/><circle cx="105.6" cy="107.2" r="97.4" style="fill:none;stroke:#261400;stroke-width:4;stroke-miterlimit:10"/><g style="enable-background:new"><path d="M244.3 115.2v21.1h-11.5V85.6c0-5.2 4.4-9.4 9.8-9.4H279.6c5.4 0 9.8 4.2 9.8 9.4v50.7H278v-21.1h-33.7zm0-28v17.1H278V87.2h-33.7zM332.1 111.8v24.6h-11.5V76.2h11.5v35.6zM389.2 101.3v9.9h-25.9v-9.9h25.9zM427.5 125.3h32v-13.6H424.1c-3.9 0-7.3-2.3-8.9-5.5-.6-1.1-.9-2.5-.9-3.9V85.6c0-5.2 4.4-9.4 9.8-9.4H461.2c5.4 0 9.8 4.2 9.8 9.4V92.8h-11.5v-5.6h-33.7v13.6H461.2c3.9 0 7.4 2.3 8.9 5.5.6 1.2.9 2.5.9 3.9V127c0 5.2-4.4 9.4-9.7 9.4h-37.2c-5.3-.1-9.7-4.3-9.7-9.4V119.8h11.5v5.6h1.6zM536.8 136.4h-53.6V76.2h53.6v11h-42.2v13.6h36.6v11h-36.6v13.6h42.2v11zM549.1 111.8V76.2h53.6v11h-42.1v13.6h36.6v11h-36.6v24.6h-11.5v-24.6zM662.5 136.4h-53.6V76.2h53.6v11h-42.2v13.6H657v11h-36.6v13.6h42.1v11zM712.4 136.4l-15.1-21.3h-16.2v21.3h-11.4V76.2H716.5c5.4 0 9.8 4.2 9.8 9.4v20c0 5.2-4.4 9.4-9.8 9.4h-5.3l3.6 5.2 11.5 16.1h-13.9zM681.1 104h33.7V87.2h-33.7V104z" class="st1"/></g></svg>